<mxfile host="65bd71144e">
    <diagram id="fZ525zsU8lHku2e23gx0" name="ORDER_FACTS">
        <mxGraphModel dx="1015" dy="877" grid="1" gridSize="10" guides="1" tooltips="1" connect="1" arrows="1" fold="1" page="1" pageScale="1" pageWidth="827" pageHeight="1169" math="0" shadow="0">
            <root>
                <mxCell id="0"/>
                <mxCell id="1" parent="0"/>
                <mxCell id="kCiKHfgYfUaN6RclirfY-14" style="rounded=0;orthogonalLoop=1;jettySize=auto;html=1;" parent="1" source="kCiKHfgYfUaN6RclirfY-8" target="kCiKHfgYfUaN6RclirfY-12" edge="1">
                    <mxGeometry relative="1" as="geometry"/>
                </mxCell>
                <mxCell id="kCiKHfgYfUaN6RclirfY-8" value="ORDER_FACTS" style="swimlane;fontStyle=0;childLayout=stackLayout;horizontal=1;startSize=30;horizontalStack=0;resizeParent=1;resizeParentMax=0;resizeLast=0;collapsible=1;marginBottom=0;whiteSpace=wrap;html=1;" parent="1" vertex="1">
                    <mxGeometry x="350" y="407" width="140" height="120" as="geometry"/>
                </mxCell>
                <mxCell id="jVg0lap7aCjxCOdSCuPh-6" value="standard_cost" style="text;strokeColor=none;fillColor=none;align=left;verticalAlign=middle;spacingLeft=4;spacingRight=4;overflow=hidden;points=[[0,0.5],[1,0.5]];portConstraint=eastwest;rotatable=0;whiteSpace=wrap;html=1;" parent="kCiKHfgYfUaN6RclirfY-8" vertex="1">
                    <mxGeometry y="30" width="140" height="30" as="geometry"/>
                </mxCell>
                <mxCell id="jVg0lap7aCjxCOdSCuPh-5" value="unit_price" style="text;strokeColor=none;fillColor=none;align=left;verticalAlign=middle;spacingLeft=4;spacingRight=4;overflow=hidden;points=[[0,0.5],[1,0.5]];portConstraint=eastwest;rotatable=0;whiteSpace=wrap;html=1;" parent="kCiKHfgYfUaN6RclirfY-8" vertex="1">
                    <mxGeometry y="60" width="140" height="30" as="geometry"/>
                </mxCell>
                <mxCell id="kCiKHfgYfUaN6RclirfY-11" value="quantity" style="text;strokeColor=none;fillColor=none;align=left;verticalAlign=middle;spacingLeft=4;spacingRight=4;overflow=hidden;points=[[0,0.5],[1,0.5]];portConstraint=eastwest;rotatable=0;whiteSpace=wrap;html=1;" parent="kCiKHfgYfUaN6RclirfY-8" vertex="1">
                    <mxGeometry y="90" width="140" height="30" as="geometry"/>
                </mxCell>
                <mxCell id="kCiKHfgYfUaN6RclirfY-16" value="" style="rounded=0;orthogonalLoop=1;jettySize=auto;html=1;" parent="1" source="kCiKHfgYfUaN6RclirfY-12" target="kCiKHfgYfUaN6RclirfY-15" edge="1">
                    <mxGeometry relative="1" as="geometry"/>
                </mxCell>
                <mxCell id="kCiKHfgYfUaN6RclirfY-19" style="edgeStyle=none;rounded=0;orthogonalLoop=1;jettySize=auto;html=1;" parent="1" source="kCiKHfgYfUaN6RclirfY-12" target="jVg0lap7aCjxCOdSCuPh-15" edge="1">
                    <mxGeometry relative="1" as="geometry">
                        <mxPoint x="626.9141945536496" y="354.6340710099221" as="targetPoint"/>
                    </mxGeometry>
                </mxCell>
                <mxCell id="kCiKHfgYfUaN6RclirfY-12" value="product" style="ellipse;whiteSpace=wrap;html=1;aspect=fixed;labelPosition=center;verticalLabelPosition=bottom;align=center;verticalAlign=top;" parent="1" vertex="1">
                    <mxGeometry x="540" y="452" width="30" height="30" as="geometry"/>
                </mxCell>
                <mxCell id="kCiKHfgYfUaN6RclirfY-15" value="category" style="ellipse;whiteSpace=wrap;html=1;aspect=fixed;labelPosition=center;verticalLabelPosition=bottom;align=center;verticalAlign=top;" parent="1" vertex="1">
                    <mxGeometry x="610" y="452" width="30" height="30" as="geometry"/>
                </mxCell>
                <mxCell id="kCiKHfgYfUaN6RclirfY-24" style="edgeStyle=none;rounded=0;orthogonalLoop=1;jettySize=auto;html=1;labelBackgroundColor=none;" parent="1" source="kCiKHfgYfUaN6RclirfY-20" target="kCiKHfgYfUaN6RclirfY-23" edge="1">
                    <mxGeometry relative="1" as="geometry"/>
                </mxCell>
                <mxCell id="jVg0lap7aCjxCOdSCuPh-17" value="" style="rounded=0;orthogonalLoop=1;jettySize=auto;html=1;endArrow=classic;endFill=1;startArrow=none;startFill=0;labelBackgroundColor=none;" parent="1" source="kCiKHfgYfUaN6RclirfY-20" target="jVg0lap7aCjxCOdSCuPh-22" edge="1">
                    <mxGeometry relative="1" as="geometry">
                        <mxPoint x="280" y="372" as="targetPoint"/>
                    </mxGeometry>
                </mxCell>
                <mxCell id="kCiKHfgYfUaN6RclirfY-20" value="customer" style="ellipse;whiteSpace=wrap;html=1;aspect=fixed;labelPosition=center;verticalLabelPosition=bottom;align=center;verticalAlign=top;labelBackgroundColor=none;" parent="1" vertex="1">
                    <mxGeometry x="265" y="452" width="30" height="30" as="geometry"/>
                </mxCell>
                <mxCell id="kCiKHfgYfUaN6RclirfY-21" style="rounded=0;orthogonalLoop=1;jettySize=auto;html=1;" parent="1" source="kCiKHfgYfUaN6RclirfY-8" target="kCiKHfgYfUaN6RclirfY-20" edge="1">
                    <mxGeometry relative="1" as="geometry">
                        <mxPoint x="500" y="477" as="sourcePoint"/>
                        <mxPoint x="550" y="477" as="targetPoint"/>
                    </mxGeometry>
                </mxCell>
                <mxCell id="kCiKHfgYfUaN6RclirfY-23" value="address" style="ellipse;whiteSpace=wrap;html=1;aspect=fixed;labelPosition=center;verticalLabelPosition=bottom;align=center;verticalAlign=top;labelBackgroundColor=none;" parent="1" vertex="1">
                    <mxGeometry x="160" y="452" width="30" height="30" as="geometry"/>
                </mxCell>
                <mxCell id="kCiKHfgYfUaN6RclirfY-28" value="" style="edgeStyle=none;rounded=0;orthogonalLoop=1;jettySize=auto;html=1;" parent="1" source="kCiKHfgYfUaN6RclirfY-25" target="kCiKHfgYfUaN6RclirfY-27" edge="1">
                    <mxGeometry relative="1" as="geometry"/>
                </mxCell>
                <mxCell id="kCiKHfgYfUaN6RclirfY-25" value="warehouse" style="ellipse;whiteSpace=wrap;html=1;aspect=fixed;labelPosition=center;verticalLabelPosition=bottom;align=center;verticalAlign=top;" parent="1" vertex="1">
                    <mxGeometry x="405" y="327" width="30" height="30" as="geometry"/>
                </mxCell>
                <mxCell id="kCiKHfgYfUaN6RclirfY-26" style="rounded=0;orthogonalLoop=1;jettySize=auto;html=1;" parent="1" source="kCiKHfgYfUaN6RclirfY-8" target="kCiKHfgYfUaN6RclirfY-25" edge="1">
                    <mxGeometry relative="1" as="geometry">
                        <mxPoint x="500" y="302" as="sourcePoint"/>
                        <mxPoint x="700" y="312" as="targetPoint"/>
                    </mxGeometry>
                </mxCell>
                <mxCell id="kCiKHfgYfUaN6RclirfY-30" value="" style="edgeStyle=none;rounded=0;orthogonalLoop=1;jettySize=auto;html=1;" parent="1" source="kCiKHfgYfUaN6RclirfY-27" target="kCiKHfgYfUaN6RclirfY-29" edge="1">
                    <mxGeometry relative="1" as="geometry"/>
                </mxCell>
                <mxCell id="kCiKHfgYfUaN6RclirfY-27" value="city" style="ellipse;whiteSpace=wrap;html=1;aspect=fixed;labelPosition=center;verticalLabelPosition=bottom;align=center;verticalAlign=top;" parent="1" vertex="1">
                    <mxGeometry x="405" y="257" width="30" height="30" as="geometry"/>
                </mxCell>
                <mxCell id="jVg0lap7aCjxCOdSCuPh-9" value="" style="edgeStyle=orthogonalEdgeStyle;rounded=0;orthogonalLoop=1;jettySize=auto;html=1;" parent="1" source="kCiKHfgYfUaN6RclirfY-29" target="jVg0lap7aCjxCOdSCuPh-8" edge="1">
                    <mxGeometry relative="1" as="geometry"/>
                </mxCell>
                <mxCell id="kCiKHfgYfUaN6RclirfY-29" value="state" style="ellipse;whiteSpace=wrap;html=1;aspect=fixed;labelPosition=center;verticalLabelPosition=bottom;align=center;verticalAlign=top;" parent="1" vertex="1">
                    <mxGeometry x="405" y="177" width="30" height="30" as="geometry"/>
                </mxCell>
                <mxCell id="jVg0lap7aCjxCOdSCuPh-10" value="" style="edgeStyle=orthogonalEdgeStyle;rounded=0;orthogonalLoop=1;jettySize=auto;html=1;endArrow=none;endFill=0;" parent="1" source="jVg0lap7aCjxCOdSCuPh-8" target="kCiKHfgYfUaN6RclirfY-29" edge="1">
                    <mxGeometry relative="1" as="geometry"/>
                </mxCell>
                <mxCell id="jVg0lap7aCjxCOdSCuPh-12" value="" style="edgeStyle=orthogonalEdgeStyle;rounded=0;orthogonalLoop=1;jettySize=auto;html=1;" parent="1" source="jVg0lap7aCjxCOdSCuPh-8" target="jVg0lap7aCjxCOdSCuPh-11" edge="1">
                    <mxGeometry relative="1" as="geometry"/>
                </mxCell>
                <mxCell id="jVg0lap7aCjxCOdSCuPh-8" value="country" style="ellipse;whiteSpace=wrap;html=1;aspect=fixed;labelPosition=center;verticalLabelPosition=bottom;align=center;verticalAlign=top;" parent="1" vertex="1">
                    <mxGeometry x="405" y="97" width="30" height="30" as="geometry"/>
                </mxCell>
                <mxCell id="jVg0lap7aCjxCOdSCuPh-11" value="region" style="ellipse;whiteSpace=wrap;html=1;aspect=fixed;labelPosition=center;verticalLabelPosition=bottom;align=center;verticalAlign=top;" parent="1" vertex="1">
                    <mxGeometry x="405" y="27" width="30" height="30" as="geometry"/>
                </mxCell>
                <mxCell id="jVg0lap7aCjxCOdSCuPh-15" value="description" style="text;html=1;strokeColor=none;fillColor=none;align=center;verticalAlign=middle;whiteSpace=wrap;rounded=0;labelPosition=center;verticalLabelPosition=middle;" parent="1" vertex="1">
                    <mxGeometry x="550" y="377" width="60" height="30" as="geometry"/>
                </mxCell>
                <mxCell id="jVg0lap7aCjxCOdSCuPh-22" value="credit_limit" style="text;html=1;strokeColor=none;fillColor=none;align=center;verticalAlign=middle;whiteSpace=wrap;rounded=0;labelBackgroundColor=none;" parent="1" vertex="1">
                    <mxGeometry x="190" y="367" width="60" height="30" as="geometry"/>
                </mxCell>
                <mxCell id="jVg0lap7aCjxCOdSCuPh-24" value="" style="rounded=0;orthogonalLoop=1;jettySize=auto;html=1;endArrow=classic;endFill=1;startArrow=none;startFill=0;labelBackgroundColor=none;" parent="1" source="kCiKHfgYfUaN6RclirfY-20" target="jVg0lap7aCjxCOdSCuPh-25" edge="1">
                    <mxGeometry relative="1" as="geometry">
                        <mxPoint x="290" y="547" as="sourcePoint"/>
                        <mxPoint x="280" y="617" as="targetPoint"/>
                    </mxGeometry>
                </mxCell>
                <mxCell id="jVg0lap7aCjxCOdSCuPh-25" value="name" style="text;html=1;strokeColor=none;fillColor=none;align=center;verticalAlign=middle;whiteSpace=wrap;rounded=0;labelBackgroundColor=none;" parent="1" vertex="1">
                    <mxGeometry x="160" y="527" width="60" height="30" as="geometry"/>
                </mxCell>
                <mxCell id="jVg0lap7aCjxCOdSCuPh-26" value="" style="rounded=0;orthogonalLoop=1;jettySize=auto;html=1;endArrow=classic;endFill=1;startArrow=none;startFill=0;labelBackgroundColor=none;" parent="1" source="kCiKHfgYfUaN6RclirfY-20" target="jVg0lap7aCjxCOdSCuPh-27" edge="1">
                    <mxGeometry relative="1" as="geometry">
                        <mxPoint x="330" y="482" as="sourcePoint"/>
                        <mxPoint x="340" y="627" as="targetPoint"/>
                    </mxGeometry>
                </mxCell>
                <mxCell id="jVg0lap7aCjxCOdSCuPh-27" value="phone" style="text;html=1;strokeColor=none;fillColor=none;align=center;verticalAlign=middle;whiteSpace=wrap;rounded=0;labelBackgroundColor=none;" parent="1" vertex="1">
                    <mxGeometry x="250" y="537" width="60" height="30" as="geometry"/>
                </mxCell>
                <mxCell id="jVg0lap7aCjxCOdSCuPh-35" style="rounded=0;orthogonalLoop=1;jettySize=auto;html=1;" parent="1" source="kCiKHfgYfUaN6RclirfY-8" target="jVg0lap7aCjxCOdSCuPh-36" edge="1">
                    <mxGeometry relative="1" as="geometry">
                        <mxPoint x="422.92456782654085" y="547" as="sourcePoint"/>
                    </mxGeometry>
                </mxCell>
                <mxCell id="jVg0lap7aCjxCOdSCuPh-38" value="" style="edgeStyle=none;rounded=0;orthogonalLoop=1;jettySize=auto;html=1;labelBackgroundColor=none;startArrow=none;startFill=0;endArrow=classic;endFill=1;" parent="1" source="jVg0lap7aCjxCOdSCuPh-36" target="jVg0lap7aCjxCOdSCuPh-37" edge="1">
                    <mxGeometry relative="1" as="geometry"/>
                </mxCell>
                <mxCell id="jVg0lap7aCjxCOdSCuPh-40" value="" style="edgeStyle=none;rounded=0;orthogonalLoop=1;jettySize=auto;html=1;labelBackgroundColor=none;startArrow=none;startFill=0;endArrow=classic;endFill=1;" parent="1" source="jVg0lap7aCjxCOdSCuPh-36" target="jVg0lap7aCjxCOdSCuPh-39" edge="1">
                    <mxGeometry relative="1" as="geometry"/>
                </mxCell>
                <mxCell id="jVg0lap7aCjxCOdSCuPh-42" value="" style="edgeStyle=none;rounded=0;orthogonalLoop=1;jettySize=auto;html=1;labelBackgroundColor=none;startArrow=none;startFill=0;endArrow=classic;endFill=1;" parent="1" source="jVg0lap7aCjxCOdSCuPh-36" target="jVg0lap7aCjxCOdSCuPh-41" edge="1">
                    <mxGeometry relative="1" as="geometry"/>
                </mxCell>
                <mxCell id="DMe8NVaou7GC5DhqJavl-2" value="" style="edgeStyle=none;html=1;" edge="1" parent="1" source="jVg0lap7aCjxCOdSCuPh-36" target="DMe8NVaou7GC5DhqJavl-1">
                    <mxGeometry relative="1" as="geometry"/>
                </mxCell>
                <mxCell id="jVg0lap7aCjxCOdSCuPh-36" value="date" style="ellipse;whiteSpace=wrap;html=1;aspect=fixed;labelPosition=center;verticalLabelPosition=bottom;align=center;verticalAlign=top;" parent="1" vertex="1">
                    <mxGeometry x="405" y="557" width="30" height="30" as="geometry"/>
                </mxCell>
                <mxCell id="jVg0lap7aCjxCOdSCuPh-37" value="day" style="ellipse;whiteSpace=wrap;html=1;aspect=fixed;labelPosition=center;verticalLabelPosition=bottom;align=center;verticalAlign=top;" parent="1" vertex="1">
                    <mxGeometry x="295" y="597" width="30" height="30" as="geometry"/>
                </mxCell>
                <mxCell id="jVg0lap7aCjxCOdSCuPh-39" value="week" style="ellipse;whiteSpace=wrap;html=1;aspect=fixed;labelPosition=center;verticalLabelPosition=bottom;align=center;verticalAlign=top;" parent="1" vertex="1">
                    <mxGeometry x="500" y="587" width="30" height="30" as="geometry"/>
                </mxCell>
                <mxCell id="jVg0lap7aCjxCOdSCuPh-44" value="" style="edgeStyle=none;rounded=0;orthogonalLoop=1;jettySize=auto;html=1;labelBackgroundColor=none;startArrow=none;startFill=0;endArrow=classic;endFill=1;" parent="1" source="jVg0lap7aCjxCOdSCuPh-41" target="jVg0lap7aCjxCOdSCuPh-43" edge="1">
                    <mxGeometry relative="1" as="geometry"/>
                </mxCell>
                <mxCell id="jVg0lap7aCjxCOdSCuPh-41" value="month" style="ellipse;whiteSpace=wrap;html=1;aspect=fixed;labelPosition=center;verticalLabelPosition=bottom;align=center;verticalAlign=top;" parent="1" vertex="1">
                    <mxGeometry x="440" y="627" width="30" height="30" as="geometry"/>
                </mxCell>
                <mxCell id="jVg0lap7aCjxCOdSCuPh-46" value="" style="edgeStyle=none;rounded=0;orthogonalLoop=1;jettySize=auto;html=1;labelBackgroundColor=none;startArrow=none;startFill=0;endArrow=classic;endFill=1;" parent="1" source="jVg0lap7aCjxCOdSCuPh-43" target="jVg0lap7aCjxCOdSCuPh-45" edge="1">
                    <mxGeometry relative="1" as="geometry"/>
                </mxCell>
                <mxCell id="jVg0lap7aCjxCOdSCuPh-43" value="trimester" style="ellipse;whiteSpace=wrap;html=1;aspect=fixed;labelPosition=center;verticalLabelPosition=bottom;align=center;verticalAlign=top;" parent="1" vertex="1">
                    <mxGeometry x="440" y="707" width="30" height="30" as="geometry"/>
                </mxCell>
                <mxCell id="jVg0lap7aCjxCOdSCuPh-45" value="year" style="ellipse;whiteSpace=wrap;html=1;aspect=fixed;labelPosition=center;verticalLabelPosition=bottom;align=center;verticalAlign=top;" parent="1" vertex="1">
                    <mxGeometry x="440" y="777" width="30" height="30" as="geometry"/>
                </mxCell>
                <mxCell id="DMe8NVaou7GC5DhqJavl-1" value="holiday" style="ellipse;whiteSpace=wrap;html=1;aspect=fixed;labelPosition=center;verticalLabelPosition=bottom;align=center;verticalAlign=top;" vertex="1" parent="1">
                    <mxGeometry x="350" y="632" width="30" height="30" as="geometry"/>
                </mxCell>
            </root>
        </mxGraphModel>
    </diagram>
    <diagram id="wOUhs14TMMU1IPU7U496" name="Page-2">
        <mxGraphModel dx="1005" dy="877" grid="1" gridSize="10" guides="1" tooltips="1" connect="1" arrows="1" fold="1" page="1" pageScale="1" pageWidth="827" pageHeight="1169" math="0" shadow="0">
            <root>
                <mxCell id="p4ujnXpGSEVUwaCQQYuc-0"/>
                <mxCell id="p4ujnXpGSEVUwaCQQYuc-1" parent="p4ujnXpGSEVUwaCQQYuc-0"/>
            </root>
        </mxGraphModel>
    </diagram>
</mxfile>